<svg
  width="97"
  height="24"
  viewBox="0 0 97 24"
  fill="none"
  xmlns="http://www.w3.org/2000/svg">
  <path
    fill-rule="evenodd"
    fill="#FFFFFF"
    clip-rule="evenodd"
    d="M85 0.75C78.6462 0.75 73.5 5.89625 73.5 12.25C73.5 17.3387 76.7919 21.6369 81.3631 23.1606C81.9381 23.2612 82.1538 22.9162 82.1538 22.6144C82.1538 22.3412 82.1394 21.4356 82.1394 20.4725C79.25 21.0044 78.5025 19.7681 78.2725 19.1212C78.1431 18.7906 77.5825 17.77 77.0938 17.4969C76.6912 17.2812 76.1162 16.7494 77.0794 16.735C77.985 16.7206 78.6319 17.5687 78.8475 17.9137C79.8825 19.6531 81.5356 19.1644 82.1969 18.8625C82.2975 18.115 82.5994 17.6119 82.93 17.3244C80.3713 17.0369 77.6975 16.045 77.6975 11.6462C77.6975 10.3956 78.1431 9.36062 78.8762 8.55562C78.7612 8.26812 78.3588 7.08937 78.9913 5.50812C78.9913 5.50812 79.9544 5.20625 82.1538 6.68687C83.0738 6.42812 84.0513 6.29875 85.0288 6.29875C86.0063 6.29875 86.9838 6.42812 87.9038 6.68687C90.1031 5.19188 91.0662 5.50812 91.0662 5.50812C91.6987 7.08937 91.2962 8.26812 91.1812 8.55562C91.9144 9.36062 92.36 10.3812 92.36 11.6462C92.36 16.0594 89.6719 17.0369 87.1131 17.3244C87.53 17.6837 87.8894 18.3737 87.8894 19.4519C87.8894 20.99 87.875 22.2262 87.875 22.6144C87.875 22.9162 88.0906 23.2756 88.6656 23.1606C93.2081 21.6369 96.5 17.3244 96.5 12.25C96.5 5.89625 91.3538 0.75 85 0.75V0.75Z" />
  <path
    fill-rule="evenodd"
    fill="#FFFFFF"
    clip-rule="evenodd"
    d="M27.7992 17.9084H27.7691C27.7826 17.9084 27.7916 17.9217 27.8051 17.9247C27.8066 17.9247 27.8126 17.9232 27.8141 17.9232L27.7992 17.9084ZM27.8051 17.9247C27.6656 17.9262 27.3146 17.9976 26.944 17.9976C25.7738 17.9976 25.3688 17.4625 25.3688 16.7639V12.1116H27.7541C27.8892 12.1116 27.9942 11.9927 27.9942 11.8292V9.30237C27.9942 9.1686 27.8742 9.04969 27.7541 9.04969H25.3688V5.91346C25.3688 5.79455 25.2938 5.72023 25.1588 5.72023H21.9183C21.7832 5.72023 21.7082 5.79455 21.7082 5.91346V9.13887C21.7082 9.13887 20.073 9.54019 19.968 9.55505C19.848 9.58478 19.7729 9.68883 19.7729 9.80773V11.8292C19.7729 11.9927 19.893 12.1116 20.028 12.1116H21.6932V16.9869C21.6932 20.6136 24.2436 20.9852 25.9839 20.9852C26.779 20.9852 27.7391 20.7325 27.8892 20.6582C27.9792 20.6285 28.0242 20.5244 28.0242 20.4204V18.1908C28.0242 18.0437 27.9222 17.9455 27.8051 17.9247ZM63.3539 14.6533C63.3539 11.963 62.2589 11.6063 61.1039 11.7252C60.2039 11.7846 59.4839 12.2305 59.4839 12.2305V17.4626C59.4839 17.4626 60.2189 17.9679 61.3139 17.9977C62.8589 18.0422 63.3539 17.4923 63.3539 14.6533ZM67 14.4155C67 19.5137 65.3348 20.9703 62.4243 20.9703C59.964 20.9703 58.6438 19.7367 58.6438 19.7367C58.6438 19.7367 58.5838 20.4204 58.5087 20.5096C58.4637 20.5987 58.3887 20.6285 58.2987 20.6285H56.0784C55.9284 20.6285 55.7933 20.5096 55.7933 20.3758L55.8233 3.86226C55.8233 3.72849 55.9434 3.60958 56.0784 3.60958H59.2739C59.4089 3.60958 59.5289 3.72849 59.5289 3.86226V9.46587C59.5289 9.46587 60.7591 8.67809 62.5593 8.67809L62.5443 8.64836C64.3446 8.64836 67 9.31723 67 14.4155ZM53.9181 9.04967H50.7676C50.6026 9.04967 50.5125 9.16858 50.5125 9.33208V17.4179C50.5125 17.4179 49.6874 17.9976 48.5623 17.9976C47.4371 17.9976 47.107 17.4922 47.107 16.3775V9.31722C47.107 9.18345 46.987 9.06454 46.852 9.06454H43.6415C43.5065 9.06454 43.3865 9.18345 43.3865 9.31722V16.9126C43.3865 20.1826 45.2318 21.0001 47.7671 21.0001C49.8524 21.0001 51.5477 19.8556 51.5477 19.8556C51.5477 19.8556 51.6227 20.4352 51.6677 20.5244C51.6977 20.5987 51.8027 20.6582 51.9078 20.6582H53.9181C54.0831 20.6582 54.1731 20.5393 54.1731 20.4055L54.2031 9.30236C54.2031 9.16858 54.0831 9.04967 53.9181 9.04967ZM18.3622 9.0348H15.1672C15.0322 9.0348 14.9122 9.16857 14.9122 9.33207V20.242C14.9122 20.5393 15.1072 20.6433 15.3622 20.6433H18.2422C18.5422 20.6433 18.6172 20.5095 18.6172 20.242V9.28748C18.6172 9.1537 18.4972 9.0348 18.3622 9.0348ZM16.7872 4.01093C15.6322 4.01093 14.7172 4.91761 14.7172 6.06212C14.7172 7.20662 15.6322 8.1133 16.7872 8.1133C17.9122 8.1133 18.8272 7.20662 18.8272 6.06212C18.8272 4.91761 17.9122 4.01093 16.7872 4.01093ZM41.5262 3.63934H38.3607C38.2257 3.63934 38.1057 3.75825 38.1057 3.89202V9.97126H33.14V3.89202C33.14 3.75825 33.0199 3.63934 32.8849 3.63934H29.6894C29.5544 3.63934 29.4344 3.75825 29.4344 3.89202V20.4055C29.4344 20.5393 29.5694 20.6582 29.6894 20.6582H32.8849C33.0199 20.6582 33.14 20.5393 33.14 20.4055V13.3453H38.1057L38.0757 20.4055C38.0757 20.5393 38.1957 20.6582 38.3307 20.6582H41.5262C41.6612 20.6582 41.7812 20.5393 41.7812 20.4055V3.89202C41.7812 3.75825 41.6612 3.63934 41.5262 3.63934ZM13.217 10.9522V19.484C13.217 19.5434 13.202 19.6475 13.127 19.6772C13.127 19.6772 11.2517 21.0001 8.16122 21.0001C4.42566 21.0001 0 19.8407 0 12.2008C0 4.56085 3.87058 2.9853 7.65114 3.00016C10.9216 3.00016 12.2418 3.72848 12.4519 3.86226C12.5119 3.93658 12.5419 3.99603 12.5419 4.07035L11.9118 6.71608C11.9118 6.84985 11.7768 7.01335 11.6117 6.96876C11.0717 6.80526 10.2615 6.47826 8.35625 6.47826C6.15092 6.47826 3.78056 7.10254 3.78056 12.0224C3.78056 16.9423 6.0309 17.522 7.65114 17.522C9.03135 17.522 9.52642 17.3585 9.52642 17.3585V13.9398H7.32109C7.15607 13.9398 7.03605 13.8209 7.03605 13.6871V10.9522C7.03605 10.8185 7.15607 10.6995 7.32109 10.6995H12.9319C13.097 10.6995 13.217 10.8185 13.217 10.9522Z"/>
</svg>
